<?xml version="1.0" encoding="UTF-8" standalone="no"?>
<svg
   xmlns:dc="http://purl.org/dc/elements/1.1/"
   xmlns:cc="http://creativecommons.org/ns#"
   xmlns:rdf="http://www.w3.org/1999/02/22-rdf-syntax-ns#"
   xmlns:svg="http://www.w3.org/2000/svg"
   xmlns="http://www.w3.org/2000/svg"
   xmlns:sodipodi="http://sodipodi.sourceforge.net/DTD/sodipodi-0.dtd"
   xmlns:inkscape="http://www.inkscape.org/namespaces/inkscape"
   sodipodi:docname="boton_navegacion_menu.svg"
   inkscape:version="1.0 (4035a4fb49, 2020-05-01)"
   id="svg8"
   version="1.1"
   viewBox="0 0 23.986417 23.019533"
   height="23.019533mm"
   width="23.986418mm">
  <defs
     id="defs2" />
  <sodipodi:namedview
     showguides="false"
     inkscape:window-maximized="0"
     inkscape:window-y="0"
     inkscape:window-x="4"
     inkscape:window-height="680"
     inkscape:window-width="1260"
     fit-margin-bottom="0"
     fit-margin-right="0"
     fit-margin-left="0"
     fit-margin-top="0"
     showgrid="false"
     inkscape:document-rotation="0"
     inkscape:current-layer="layer1"
     inkscape:document-units="mm"
     inkscape:cy="30.843709"
     inkscape:cx="19.688632"
     inkscape:zoom="1.979899"
     inkscape:pageshadow="2"
     inkscape:pageopacity="0.0"
     borderopacity="1.0"
     bordercolor="#666666"
     pagecolor="#ffffff"
     id="base" />
  <metadata
     id="metadata5">
    <rdf:RDF>
      <cc:Work
         rdf:about="">
        <dc:format>image/svg+xml</dc:format>
        <dc:type
           rdf:resource="http://purl.org/dc/dcmitype/StillImage" />
        <dc:title />
      </cc:Work>
    </rdf:RDF>
  </metadata>
  <g
     transform="translate(-72.467828,-61.148977)"
     id="layer1"
     inkscape:groupmode="layer"
     inkscape:label="Capa 1">
    <path
       sodipodi:nodetypes="ssccsss"
       inkscape:export-filename="E:\Documentos\YOAN\Erick\presentacion_proyecto\recursos\botones\anterior.png"
       inkscape:export-ydpi="96"
       inkscape:export-xdpi="96"
       d="m 92.440297,71.297997 c 1.970399,0 3.556698,-1.96802 3.556698,-4.412593 v -5.736427 h -23 v 5.736427 c 0,2.444573 0.78986,4.412593 3.027524,4.412593 z"
       style="fill:#000080;stroke-width:0.130726"
       id="rect22-5-0-9" />
    <path
       inkscape:export-filename="E:\Documentos\YOAN\Erick\presentacion_proyecto\recursos\botones\anterior_over.png"
       inkscape:export-ydpi="96"
       inkscape:export-xdpi="96"
       d="m 92.678748,84.168511 c 2.048196,0 3.697244,-2.052119 3.697244,-4.601337 v -5.981996 h -0.458607 v 5.525698 c 0,2.549214 -1.585871,4.601569 -3.555786,4.601569 h -15.88272 c -1.96991,0 -3.555784,-2.052355 -3.555784,-4.601569 v -5.525698 h -0.455267 v 5.981996 c 0,2.549218 1.649043,4.601337 3.69724,4.601337 z"
       style="fill:#00ffff;fill-opacity:1;stroke-width:0.136104"
       id="rect22-2-1-4-7" />
    <path
       sodipodi:nodetypes="ssccsss"
       id="rect22-5-0-9-7"
       style="fill:#aaeeff;stroke-width:0.130558"
       d="m 92.299625,83.769139 c 1.9704,0 3.556699,-1.962981 3.556699,-4.401295 v -5.721739 h -23 v 5.721739 c 0,2.438314 1.808358,4.401295 3.944118,4.401295 z"
       inkscape:export-xdpi="96"
       inkscape:export-ydpi="96"
       inkscape:export-filename="E:\Documentos\YOAN\Erick\presentacion_proyecto\recursos\botones\anterior.png" />
    <path
       id="rect22-2-1-4-7-7"
       style="fill:#0000ff;fill-opacity:1;stroke-width:0.135903"
       d="m 92.76793,71.73231 c 2.042142,0 3.686316,-2.052119 3.686316,-4.601337 v -5.981996 h -0.457251 v 5.525698 c 0,2.549214 -1.581184,4.601569 -3.545277,4.601569 H 76.615943 c -1.964087,0 -3.545274,-2.052355 -3.545274,-4.601569 v -5.525698 h -0.453922 v 5.981996 c 0,2.549218 1.644169,4.601337 3.686312,4.601337 z"
       inkscape:export-xdpi="96"
       inkscape:export-ydpi="96"
       inkscape:export-filename="E:\Documentos\YOAN\Erick\presentacion_proyecto\recursos\botones\anterior_over.png" />
  </g>
</svg>
