<?xml version="1.0" encoding="UTF-8" standalone="no"?>
<svg
   xmlns:dc="http://purl.org/dc/elements/1.1/"
   xmlns:cc="http://creativecommons.org/ns#"
   xmlns:rdf="http://www.w3.org/1999/02/22-rdf-syntax-ns#"
   xmlns:svg="http://www.w3.org/2000/svg"
   xmlns="http://www.w3.org/2000/svg"
   xmlns:sodipodi="http://sodipodi.sourceforge.net/DTD/sodipodi-0.dtd"
   xmlns:inkscape="http://www.inkscape.org/namespaces/inkscape"
   sodipodi:docname="boton_informacion_menu.svg"
   inkscape:version="1.0 (4035a4fb49, 2020-05-01)"
   id="svg8"
   version="1.1"
   viewBox="0 0 83.998001 59.293597"
   height="59.293598mm"
   width="83.998001mm"
   inkscape:export-filename="E:\Documentos\YOAN\Erick\presentacion_proyecto\recursos\botones\salir2.png"
   inkscape:export-xdpi="96"
   inkscape:export-ydpi="96">
  <defs
     id="defs2" />
  <sodipodi:namedview
     inkscape:window-maximized="1"
     inkscape:window-y="-8"
     inkscape:window-x="-8"
     inkscape:window-height="657"
     inkscape:window-width="1280"
     showgrid="false"
     inkscape:document-rotation="0"
     inkscape:current-layer="layer1"
     inkscape:document-units="px"
     inkscape:cy="157.46271"
     inkscape:cx="190.15375"
     inkscape:zoom="1.4"
     inkscape:pageshadow="2"
     inkscape:pageopacity="0.0"
     borderopacity="1.0"
     bordercolor="#666666"
     pagecolor="#ffffff"
     id="base"
     fit-margin-top="0"
     fit-margin-left="0"
     fit-margin-right="0"
     fit-margin-bottom="0" />
  <metadata
     id="metadata5">
    <rdf:RDF>
      <cc:Work
         rdf:about="">
        <dc:format>image/svg+xml</dc:format>
        <dc:type
           rdf:resource="http://purl.org/dc/dcmitype/StillImage" />
        <dc:title />
      </cc:Work>
    </rdf:RDF>
  </metadata>
  <g
     id="layer1"
     inkscape:groupmode="layer"
     inkscape:label="Capa 1"
     transform="translate(-2.1545682,-149.18041)">
    <ellipse
       inkscape:export-ydpi="96"
       inkscape:export-xdpi="96"
       ry="6.1263485"
       rx="35.347095"
       cy="178.51564"
       cx="45.340359"
       id="path24-5-6"
       style="fill:#000080;fill-opacity:1;stroke-width:0.171678" />
    <path
       inkscape:export-ydpi="96"
       inkscape:export-xdpi="96"
       d="m 11.735937,174.24792 a 9.8406862,44.715853 86.727009 0 0 -7.6026019,5.9991 9.8406862,44.715853 86.727009 0 0 45.0250679,7.32218 9.8406862,44.715853 86.727009 0 0 21.282917,-2.39591 10.190976,50.02687 86.734674 0 1 -13.019441,1.0866 10.190976,50.02687 86.734674 0 1 -50.3411886,-7.37365 10.190976,50.02687 86.734674 0 1 4.6552466,-4.63832 z"
       style="fill:#0000b5;fill-opacity:1;stroke-width:0.244729"
       id="path24-6-84-0" />
    <path
       inkscape:export-ydpi="96"
       inkscape:export-xdpi="96"
       id="path24-6-8-5-1"
       style="fill:#0000b5;fill-opacity:1;stroke-width:0.244729"
       d="m 78.648743,182.58078 a 9.8406631,44.715958 85.760022 0 0 7.500512,-6.12655 9.8406631,44.715958 85.760022 0 0 -45.141967,-6.56138 9.8406631,44.715958 85.760022 0 0 -21.239553,2.75473 10.190952,50.026992 85.767704 0 1 12.999294,-1.30615 10.190952,50.026992 85.767704 0 1 50.458203,6.52312 10.190952,50.026992 85.767704 0 1 -4.576489,4.71623 z" />
    <ellipse
       style="fill:#aaeeff;stroke-width:0.171678"
       id="path24-5-6-0"
       cx="43.363194"
       cy="199.10451"
       rx="35.347095"
       ry="6.1263456"
       inkscape:export-xdpi="96"
       inkscape:export-ydpi="96" />
    <path
       id="path24-6-84-0-7"
       style="fill:#5fbcd3;fill-opacity:1;stroke-width:0.244728"
       d="m 9.7587713,194.83674 a 9.840681,44.715854 86.727011 0 0 -7.6026022,5.99911 9.840681,44.715854 86.727011 0 0 45.0250659,7.32218 9.840681,44.715854 86.727011 0 0 21.282917,-2.39592 10.190971,50.02687 86.734676 0 1 -13.019435,1.08659 10.190971,50.02687 86.734676 0 1 -50.3411926,-7.37364 10.190971,50.02687 86.734676 0 1 4.6552469,-4.63832 z"
       inkscape:export-xdpi="96"
       inkscape:export-ydpi="96" />
    <path
       d="m 76.671581,203.16959 a 9.8406581,44.715959 85.760025 0 0 7.500507,-6.12655 9.8406581,44.715959 85.760025 0 0 -45.141964,-6.56136 9.8406581,44.715959 85.760025 0 0 -21.239554,2.75472 10.190947,50.026992 85.767707 0 1 12.999293,-1.30613 10.190947,50.026992 85.767707 0 1 50.458201,6.5231 10.190947,50.026992 85.767707 0 1 -4.576483,4.71622 z"
       style="fill:#5fbcd3;fill-opacity:1;stroke-width:0.244728"
       id="path24-6-8-5-1-7"
       inkscape:export-xdpi="96"
       inkscape:export-ydpi="96" />
    <ellipse
       style="fill:#37c8ab;fill-opacity:1;stroke-width:0.171678"
       id="path24-5-6-6"
       cx="44.686115"
       cy="158.33171"
       rx="35.347095"
       ry="6.1263485"
       inkscape:export-xdpi="96"
       inkscape:export-ydpi="96" />
    <path
       id="path24-6-84-0-2"
       style="fill:#5fd3bc;fill-opacity:1;stroke-width:0.244729"
       d="m 11.081688,154.06399 a 9.8406861,44.715854 86.727009 0 0 -7.6026017,5.9991 9.8406861,44.715854 86.727009 0 0 45.0250667,7.32218 9.8406861,44.715854 86.727009 0 0 21.282921,-2.39591 10.190976,50.026869 86.734674 0 1 -13.019444,1.0866 10.190976,50.026869 86.734674 0 1 -50.3411887,-7.37365 10.190976,50.026869 86.734674 0 1 4.6552467,-4.63832 z"
       inkscape:export-xdpi="96"
       inkscape:export-ydpi="96" />
    <path
       d="m 77.994494,162.39685 a 9.8406631,44.715957 85.760022 0 0 7.50051,-6.12655 9.8406631,44.715957 85.760022 0 0 -45.141965,-6.56138 9.8406631,44.715957 85.760022 0 0 -21.239554,2.75473 10.190952,50.026991 85.767704 0 1 12.999294,-1.30615 10.190952,50.026991 85.767704 0 1 50.458205,6.52312 10.190952,50.026991 85.767704 0 1 -4.57649,4.71623 z"
       style="fill:#5fd3bc;fill-opacity:1;stroke-width:0.244729"
       id="path24-6-8-5-1-6"
       inkscape:export-xdpi="96"
       inkscape:export-ydpi="96" />
  </g>
</svg>
